<svg
  role="presentation"
  style="fill-rule:evenodd;clip-rule:evenodd;stroke-linejoin:round;stroke-miterlimit:2;"
  width="24"
  xmlns="http://www.w3.org/2000/svg"
  height="24"
>
  <g transform="matrix(1,0,0,1,-1044.41,-407.55)">
    <g transform="matrix(0.0469267,0,0,0.0469267,1044.41,407.549)">
      <path
        d="M35.2,171.1C-11.7,217.1 -11.7,294 35.2,340.9L171.1,476.8C217.1,523.7 294,523.7 340.9,476.8L476.8,340.9C523.7,294 523.7,217.1 476.8,171.1L340.9,35.2C294,-11.7 217.1,-11.7 171.1,35.2L35.2,171.1ZM315.5,315.5C282.6,348.3 229.4,348.3 196.6,315.5C163.7,282.6 163.7,229.4 196.6,196.6C229.4,163.7 282.6,163.7 315.5,196.6C348.3,229.4 348.3,282.6 315.5,315.5Z"
        style="fill:currentColor;fill-rule:nonzero;"
      />
    </g>
  </g>
</svg>
