<svg
  style="fill-rule:evenodd;clip-rule:evenodd;stroke-linejoin:round;stroke-miterlimit:2;"
  width="24"
  xmlns="http://www.w3.org/2000/svg"
  height="24"
>
  <g transform="matrix(1,0,0,1,-1005.97,-433.326)">
    <g transform="matrix(0.0534603,0,0,0.0534603,1005.97,431.615)">
      <path
        d="M155.3,318.4C172.5,318.4 186.5,312.3 186.5,293C186.5,273.3 174.8,265.6 156.2,265.5L110.2,265.5L110.2,318.4L155.3,318.4ZM149.9,188.8L110.3,188.8L110.3,233.6L153,233.6C168.1,233.6 178.8,227 178.8,210.7C178.8,193 165.1,188.8 149.9,188.8ZM279.4,263.6L341.6,263.6C339.9,245.1 330.3,233.9 311.1,233.9C292.8,233.9 280.6,245.3 279.4,263.6ZM384,32L64,32C28.7,32 0,60.7 0,96L0,416C0,451.3 28.7,480 64,480L384,480C419.3,480 448,451.3 448,416L448,96C448,60.7 419.3,32 384,32ZM349.5,185L271.7,185L271.7,166.1L349.5,166.1L349.5,185ZM193.7,243.7C217.3,250.4 228.7,271.2 228.7,295.3C228.7,334.3 196,351 161.1,351.2L68,351.2L68,159.2L158.5,159.2C191.4,159.2 219.9,168.5 219.9,206.7C219.9,226 210.9,235.5 193.7,243.7ZM312.4,205.1C355.9,205.1 380,239.4 380,280.5C380,282.1 379.9,283.8 379.8,285.5C379.8,286.3 379.7,287 379.7,287.7L279.5,287.7C279.5,309.9 291.2,323 313.6,323C325.2,323 340.1,316.8 343.8,304.9L377.5,304.9C367.1,336.8 345.6,351.7 312.4,351.7C268.6,351.7 241.3,322 241.3,278.7C241.3,236.9 270,205.1 312.4,205.1Z"
        style="fill:currentColor;fill-rule:nonzero;"
      />
    </g>
  </g>
</svg>