<?xml version="1.0" encoding="UTF-8" standalone="no"?>
<!DOCTYPE svg PUBLIC "-//W3C//DTD SVG 1.1//EN" "http://www.w3.org/Graphics/SVG/1.1/DTD/svg11.dtd">
<svg role="presentation" width="100%" height="100%" viewBox="0 0 24 24" version="1.1" xmlns="http://www.w3.org/2000/svg" xmlns:xlink="http://www.w3.org/1999/xlink" xml:space="preserve" xmlns:serif="http://www.serif.com/" style="fill-rule:evenodd;clip-rule:evenodd;stroke-linejoin:round;stroke-miterlimit:2;">
    <path d="M2,12C2,7.286 2,4.929 3.464,3.464C4.929,2 7.286,2 12,2C16.714,2 19.071,2 20.536,3.464C22,4.929 22,7.286 22,12C22,16.714 22,19.071 20.536,20.536C19.071,22 16.714,22 12,22C7.286,22 4.929,22 3.464,20.536C2,19.071 2,16.714 2,12ZM12,7.25C11.586,7.25 11.25,7.586 11.25,8L11.25,12C11.25,12.199 11.329,12.39 11.47,12.53L13.97,15.03C14.263,15.323 14.737,15.323 15.03,15.03C15.323,14.737 15.323,14.263 15.03,13.97L12.75,11.689L12.75,8C12.75,7.586 12.414,7.25 12,7.25Z" style="fill:currentColor;"/>
</svg>
